<svg width="244" height="202" viewBox="0 0 244 202" fill="none" xmlns="http://www.w3.org/2000/svg">
<g clip-path="url(#clip0_473_2381)">
<path fill-rule="evenodd" clip-rule="evenodd" d="M210.011 3.15727C192.421 -4.08407 168.763 11.1691 148.342 10.9258C131.446 10.7245 118.583 -1.12778 101.214 1.86103C82.2712 5.12082 60.7292 12.2874 47.1892 28.3325C33.6772 44.3449 39.4272 65.5681 31.7322 84.1975C23.5222 104.074 -0.870758 121.576 0.704239 140.871C2.25624 159.884 24.2662 165.913 39.1762 175.396C52.0372 183.576 66.4303 188.394 81.7722 192.433C98.5342 196.844 114.915 201.067 133.365 200.186C157.821 199.019 190.54 208.628 206.63 186.474C224.324 162.112 191.691 137.275 198.939 109.902C205.012 86.9701 240.456 72.5881 242.818 49.819C245.071 28.0994 228.293 10.6831 210.011 3.15727Z" fill="#FBE67B"/>
</g>
<defs>
<clipPath id="clip0_473_2381">
<rect width="243" height="201" fill="white" transform="matrix(-1 0 0 1 243.5 0.820068)"/>
</clipPath>
</defs>
</svg>
